{"asset":{"version":"2.0","generator":"VECTARY"},"nodes":[{"translation":[0,0.01698501648244323,3.552713678800501e-18],"scale":[0.0005,0.0005,0.0005],"rotation":[-0.7071067811865475,0,0,0.7071067811865476],"name":"bookcover","mesh":0},{"translation":[-0.005333124717631647,0.7341819961320915,0.3152359584420881],"scale":[1,1,1],"rotation":[-0.5465482682521764,-0.0070828825602473056,-0.004622888768221145,0.8373848888919729],"name":"Camera","camera":0}],"materials":[{"pbrMetallicRoughness":{"baseColorFactor":[1,1,1,1],"baseColorTexture":{"index":0,"extensions":{"KHR_texture_transform":{"offset":[0,0],"scale":[1,1],"rotation":0}},"texCoord":0},"metallicFactor":0,"roughnessFactor":1},"name":"","emissiveTexture":{"index":1,"extensions":{"KHR_texture_transform":{"offset":[0,0],"scale":[1,1],"rotation":0}},"texCoord":0},"emissiveFactor":[0,0,0],"alphaMode":"BLEND","doubleSided":true}],"textures":[{"sampler":0,"source":0},{"sampler":0,"source":1}],"images":[{"uri":"9f5383f2-cb39-477e-8b53-efdd6124f3f7.png","mimeType":"image/png"},{"uri":"2db14ed8-96c5-48f7-86e4-d722afcc18b3.png","mimeType":"image/png"}],"samplers":[{"wrapS":33071,"wrapT":33071}],"meshes":[{"primitives":[{"mode":4,"attributes":{"POSITION":1,"NORMAL":2,"TEXCOORD_0":3},"material":0,"indices":0}]}],"accessors":[{"bufferView":0,"byteOffset":0,"componentType":5125,"count":150,"type":"SCALAR"},{"bufferView":1,"byteOffset":0,"componentType":5126,"count":36,"max":[114.92430877685547,128,0.20000000298023224],"min":[-114.92430877685547,-128,0.20000000298023224],"type":"VEC3"},{"bufferView":2,"byteOffset":0,"componentType":5126,"count":36,"type":"VEC3"},{"bufferView":3,"byteOffset":0,"componentType":5126,"count":36,"type":"VEC2"}],"bufferViews":[{"buffer":0,"byteOffset":0,"byteLength":600,"target":34963},{"buffer":0,"byteOffset":600,"byteLength":432,"target":34962},{"buffer":0,"byteOffset":1032,"byteLength":432,"target":34962},{"buffer":0,"byteOffset":1464,"byteLength":288,"target":34962}],"cameras":[{"name":"Camera","type":"perspective","extras":{"targetDistance":0.7832539949062501},"perspective":{"aspectRatio":1.223285486443381,"yfov":0.6108652381980153,"zfar":49.728624668904395,"znear":0.004051095689703345}}],"scene":0,"scenes":[{"nodes":[0,1],"name":"bookcover"}],"extensionsUsed":["KHR_texture_transform"],"buffers":[{"byteLength":1752,"uri":"bookcover.bin"}]}